<svg width="576" height="384" viewBox="0 0 576 384" fill="none" xmlns="http://www.w3.org/2000/svg">
<g clip-path="url(#clip0_24_13)">
<rect width="576" height="384" fill="white"/>
<path d="M288 80V304" stroke="black" stroke-opacity="0.5" stroke-width="2" stroke-linecap="round"/>
<rect x="484" y="30" width="66.2234" height="75" rx="2" fill="white"/>
<rect x="485" y="31" width="64.2234" height="73" rx="1" stroke="black" stroke-opacity="0.5" stroke-width="2" stroke-dasharray="10 10"/>
<path d="M338 182H524" stroke="black" stroke-opacity="0.5" stroke-width="2" stroke-linecap="round"/>
<path d="M338 222H524" stroke="black" stroke-opacity="0.5" stroke-width="2" stroke-linecap="round"/>
<path d="M338 262H524" stroke="black" stroke-opacity="0.5" stroke-width="2" stroke-linecap="round"/>
<path d="M338 302H524" stroke="black" stroke-opacity="0.5" stroke-width="2" stroke-linecap="round"/>
<path d="M185.305 365.1H186.205V365.93C186.352 365.637 186.575 365.41 186.875 365.25C187.182 365.083 187.532 365 187.925 365C188.399 365 188.789 365.1 189.095 365.3C189.409 365.5 189.629 365.79 189.755 366.17C189.909 365.777 190.139 365.483 190.445 365.29C190.759 365.097 191.132 365 191.565 365C192.205 365 192.695 365.16 193.035 365.48C193.375 365.793 193.545 366.243 193.545 366.83V370H192.625V366.74C192.625 366.333 192.509 366.01 192.275 365.77C192.049 365.53 191.742 365.41 191.355 365.41C190.902 365.41 190.542 365.6 190.275 365.98C190.009 366.353 189.875 366.87 189.875 367.53V370H188.975V367.17C188.975 366.603 188.859 366.17 188.625 365.87C188.399 365.563 188.072 365.41 187.645 365.41C187.212 365.41 186.865 365.573 186.605 365.9C186.352 366.22 186.225 366.657 186.225 367.21V370H185.305V365.1ZM196.696 370.1C196.05 370.1 195.556 369.97 195.216 369.71C194.883 369.45 194.716 369.08 194.716 368.6C194.716 368.087 194.92 367.697 195.326 367.43C195.733 367.157 196.326 367.02 197.106 367.02H198.566V366.66C198.566 366.253 198.443 365.943 198.196 365.73C197.95 365.517 197.593 365.41 197.126 365.41C196.686 365.41 196.333 365.513 196.066 365.72C195.8 365.92 195.643 366.207 195.596 366.58H194.876C194.943 366.073 195.176 365.683 195.576 365.41C195.976 365.137 196.51 365 197.176 365C197.923 365 198.493 365.153 198.886 365.46C199.28 365.76 199.476 366.197 199.476 366.77V368.39C199.476 368.963 199.526 369.5 199.626 370H198.766C198.693 369.7 198.646 369.413 198.626 369.14C198.226 369.78 197.583 370.1 196.696 370.1ZM196.926 369.71C197.233 369.71 197.51 369.64 197.756 369.5C198.01 369.353 198.206 369.16 198.346 368.92C198.493 368.68 198.566 368.413 198.566 368.12V367.43H197.356C196.77 367.43 196.333 367.527 196.046 367.72C195.766 367.907 195.626 368.197 195.626 368.59C195.626 368.957 195.736 369.237 195.956 369.43C196.176 369.617 196.5 369.71 196.926 369.71ZM203.32 370.1C202.82 370.1 202.373 369.993 201.98 369.78C201.593 369.56 201.29 369.257 201.07 368.87C200.856 368.483 200.75 368.043 200.75 367.55C200.75 367.043 200.853 366.6 201.06 366.22C201.266 365.833 201.556 365.533 201.93 365.32C202.31 365.107 202.746 365 203.24 365C203.686 365 204.083 365.09 204.43 365.27C204.776 365.443 205.046 365.69 205.24 366.01V363.17H206.16V370H205.24V369.11C205.053 369.43 204.793 369.677 204.46 369.85C204.133 370.017 203.753 370.1 203.32 370.1ZM203.45 369.7C203.803 369.7 204.113 369.613 204.38 369.44C204.653 369.26 204.863 369.01 205.01 368.69C205.163 368.363 205.24 367.99 205.24 367.57C205.24 367.137 205.163 366.757 205.01 366.43C204.863 366.097 204.65 365.843 204.37 365.67C204.096 365.49 203.78 365.4 203.42 365.4C202.886 365.4 202.46 365.593 202.14 365.98C201.826 366.36 201.67 366.877 201.67 367.53C201.67 367.963 201.743 368.343 201.89 368.67C202.036 368.997 202.243 369.25 202.51 369.43C202.783 369.61 203.096 369.7 203.45 369.7ZM210.102 369.69C210.555 369.69 210.935 369.58 211.242 369.36C211.555 369.14 211.755 368.84 211.842 368.46H212.592C212.465 368.973 212.175 369.377 211.722 369.67C211.268 369.957 210.715 370.1 210.062 370.1C209.515 370.1 209.035 369.997 208.622 369.79C208.215 369.583 207.898 369.29 207.672 368.91C207.452 368.523 207.342 368.077 207.342 367.57C207.342 367.05 207.452 366.597 207.672 366.21C207.892 365.823 208.205 365.527 208.612 365.32C209.025 365.107 209.502 365 210.042 365C210.855 365 211.488 365.22 211.942 365.66C212.402 366.1 212.642 366.72 212.662 367.52H208.262V367.57C208.262 368.23 208.422 368.75 208.742 369.13C209.062 369.503 209.515 369.69 210.102 369.69ZM210.062 365.41C209.562 365.41 209.158 365.56 208.852 365.86C208.545 366.153 208.358 366.57 208.292 367.11H211.792C211.718 366.563 211.532 366.143 211.232 365.85C210.938 365.557 210.548 365.41 210.062 365.41ZM215.907 365.1H216.877L218.437 368.73L219.857 365H220.307L221.887 368.82L223.497 365.1H224.057L221.907 370.1H221.477L219.917 366.37L218.497 370.1H218.087L215.907 365.1ZM225.546 364.49C225.346 364.49 225.183 364.433 225.056 364.32C224.929 364.207 224.866 364.057 224.866 363.87C224.866 363.683 224.929 363.533 225.056 363.42C225.183 363.307 225.346 363.25 225.546 363.25C225.746 363.25 225.909 363.307 226.036 363.42C226.163 363.533 226.226 363.683 226.226 363.87C226.226 364.057 226.163 364.207 226.036 364.32C225.909 364.433 225.746 364.49 225.546 364.49ZM225.086 365.1H226.006V370H225.086V365.1ZM229.23 370.1C228.796 370.1 228.473 369.98 228.26 369.74C228.046 369.5 227.94 369.13 227.94 368.63V365.51H227.06L227.2 365.1H227.95L228.31 363.72H228.86V365.1H230.23L230.1 365.51H228.86V368.77C228.86 369.377 229.086 369.68 229.54 369.68C229.78 369.68 230.013 369.617 230.24 369.49V369.92C229.96 370.04 229.623 370.1 229.23 370.1ZM231.194 363.17H232.114V366.04C232.287 365.713 232.544 365.46 232.884 365.28C233.231 365.093 233.621 365 234.054 365C234.694 365 235.191 365.16 235.544 365.48C235.904 365.793 236.084 366.233 236.084 366.8V370H235.164V366.71C235.164 366.297 235.051 365.977 234.824 365.75C234.597 365.523 234.274 365.41 233.854 365.41C233.327 365.41 232.904 365.583 232.584 365.93C232.271 366.277 232.114 366.733 232.114 367.3V370H231.194V363.17ZM240.022 365.1H240.942V366.01C241.129 365.697 241.395 365.45 241.742 365.27C242.095 365.09 242.492 365 242.932 365C243.712 365 244.322 365.227 244.762 365.68C245.209 366.127 245.432 366.743 245.432 367.53C245.432 368.33 245.209 368.96 244.762 369.42C244.315 369.873 243.705 370.1 242.932 370.1C242.479 370.1 242.082 370.01 241.742 369.83C241.402 369.65 241.135 369.39 240.942 369.05V371.9H240.022V365.1ZM242.722 369.7C243.075 369.7 243.389 369.61 243.662 369.43C243.935 369.243 244.145 368.987 244.292 368.66C244.439 368.327 244.512 367.943 244.512 367.51C244.512 366.857 244.352 366.343 244.032 365.97C243.719 365.59 243.292 365.4 242.752 365.4C242.399 365.4 242.082 365.49 241.802 365.67C241.529 365.85 241.315 366.103 241.162 366.43C241.015 366.757 240.942 367.133 240.942 367.56C240.942 368.213 241.102 368.733 241.422 369.12C241.742 369.507 242.175 369.7 242.722 369.7ZM249.244 370.1C248.677 370.1 248.18 369.997 247.754 369.79C247.327 369.577 246.997 369.277 246.764 368.89C246.53 368.503 246.414 368.057 246.414 367.55C246.414 367.043 246.53 366.597 246.764 366.21C246.997 365.823 247.327 365.527 247.754 365.32C248.18 365.107 248.677 365 249.244 365C249.81 365 250.307 365.107 250.734 365.32C251.167 365.527 251.5 365.823 251.734 366.21C251.967 366.597 252.084 367.043 252.084 367.55C252.084 368.057 251.967 368.503 251.734 368.89C251.5 369.277 251.167 369.577 250.734 369.79C250.307 369.997 249.81 370.1 249.244 370.1ZM249.244 369.69C249.837 369.69 250.304 369.5 250.644 369.12C250.984 368.74 251.154 368.217 251.154 367.55C251.154 366.883 250.984 366.36 250.644 365.98C250.304 365.6 249.837 365.41 249.244 365.41C248.65 365.41 248.184 365.6 247.844 365.98C247.51 366.36 247.344 366.883 247.344 367.55C247.344 368.217 247.51 368.74 247.844 369.12C248.184 369.5 248.65 369.69 249.244 369.69ZM255.504 370.1C254.818 370.1 254.261 369.967 253.834 369.7C253.414 369.433 253.161 369.06 253.074 368.58H253.834C253.888 368.927 254.061 369.2 254.354 369.4C254.654 369.593 255.048 369.69 255.534 369.69C255.994 369.69 256.361 369.597 256.634 369.41C256.914 369.223 257.054 368.977 257.054 368.67C257.054 368.423 256.934 368.23 256.694 368.09C256.454 367.943 256.054 367.823 255.494 367.73C254.934 367.637 254.488 367.533 254.154 367.42C253.828 367.3 253.591 367.157 253.444 366.99C253.298 366.817 253.224 366.603 253.224 366.35C253.224 365.937 253.421 365.61 253.814 365.37C254.214 365.123 254.771 365 255.484 365C256.178 365 256.738 365.133 257.164 365.4C257.598 365.66 257.848 366.027 257.914 366.5H257.154C257.094 366.16 256.921 365.893 256.634 365.7C256.348 365.507 255.984 365.41 255.544 365.41C255.124 365.41 254.784 365.487 254.524 365.64C254.271 365.787 254.144 365.987 254.144 366.24C254.144 366.393 254.188 366.517 254.274 366.61C254.361 366.703 254.518 366.787 254.744 366.86C254.978 366.933 255.321 367.01 255.774 367.09C256.548 367.223 257.108 367.41 257.454 367.65C257.801 367.883 257.974 368.203 257.974 368.61C257.974 369.077 257.754 369.443 257.314 369.71C256.881 369.97 256.278 370.1 255.504 370.1ZM260.773 370.1C260.339 370.1 260.016 369.98 259.803 369.74C259.589 369.5 259.483 369.13 259.483 368.63V365.51H258.603L258.743 365.1H259.493L259.853 363.72H260.403V365.1H261.773L261.643 365.51H260.403V368.77C260.403 369.377 260.629 369.68 261.083 369.68C261.323 369.68 261.556 369.617 261.783 369.49V369.92C261.503 370.04 261.166 370.1 260.773 370.1ZM265.337 370.1C264.77 370.1 264.274 369.997 263.847 369.79C263.427 369.583 263.104 369.29 262.877 368.91C262.65 368.523 262.537 368.07 262.537 367.55C262.537 367.03 262.65 366.58 262.877 366.2C263.104 365.813 263.427 365.517 263.847 365.31C264.267 365.103 264.76 365 265.327 365C266.02 365 266.59 365.147 267.037 365.44C267.49 365.727 267.77 366.127 267.877 366.64H267.127C267.034 366.26 266.827 365.96 266.507 365.74C266.194 365.52 265.814 365.41 265.367 365.41C264.78 365.41 264.314 365.603 263.967 365.99C263.627 366.37 263.457 366.89 263.457 367.55C263.457 368.21 263.627 368.733 263.967 369.12C264.314 369.5 264.78 369.69 265.367 369.69C265.807 369.69 266.187 369.58 266.507 369.36C266.827 369.14 267.034 368.84 267.127 368.46H267.877C267.77 368.973 267.49 369.377 267.037 369.67C266.584 369.957 266.017 370.1 265.337 370.1ZM270.925 370.1C270.278 370.1 269.785 369.97 269.445 369.71C269.112 369.45 268.945 369.08 268.945 368.6C268.945 368.087 269.148 367.697 269.555 367.43C269.962 367.157 270.555 367.02 271.335 367.02H272.795V366.66C272.795 366.253 272.672 365.943 272.425 365.73C272.178 365.517 271.822 365.41 271.355 365.41C270.915 365.41 270.562 365.513 270.295 365.72C270.028 365.92 269.872 366.207 269.825 366.58H269.105C269.172 366.073 269.405 365.683 269.805 365.41C270.205 365.137 270.738 365 271.405 365C272.152 365 272.722 365.153 273.115 365.46C273.508 365.76 273.705 366.197 273.705 366.77V368.39C273.705 368.963 273.755 369.5 273.855 370H272.995C272.922 369.7 272.875 369.413 272.855 369.14C272.455 369.78 271.812 370.1 270.925 370.1ZM271.155 369.71C271.462 369.71 271.738 369.64 271.985 369.5C272.238 369.353 272.435 369.16 272.575 368.92C272.722 368.68 272.795 368.413 272.795 368.12V367.43H271.585C270.998 367.43 270.562 367.527 270.275 367.72C269.995 367.907 269.855 368.197 269.855 368.59C269.855 368.957 269.965 369.237 270.185 369.43C270.405 369.617 270.728 369.71 271.155 369.71ZM275.158 365.1H276.078V366.15C276.205 365.783 276.405 365.5 276.678 365.3C276.958 365.1 277.295 365 277.688 365C277.842 365 277.955 365.013 278.028 365.04L277.938 365.68C277.838 365.627 277.698 365.6 277.518 365.6C277.065 365.6 276.712 365.79 276.458 366.17C276.205 366.55 276.078 367.03 276.078 367.61V370H275.158V365.1ZM281.181 370.1C280.681 370.1 280.234 369.993 279.841 369.78C279.454 369.56 279.151 369.257 278.931 368.87C278.718 368.483 278.611 368.043 278.611 367.55C278.611 367.043 278.714 366.6 278.921 366.22C279.128 365.833 279.418 365.533 279.791 365.32C280.171 365.107 280.608 365 281.101 365C281.548 365 281.944 365.09 282.291 365.27C282.638 365.443 282.908 365.69 283.101 366.01V363.17H284.021V370H283.101V369.11C282.914 369.43 282.654 369.677 282.321 369.85C281.994 370.017 281.614 370.1 281.181 370.1ZM281.311 369.7C281.664 369.7 281.974 369.613 282.241 369.44C282.514 369.26 282.724 369.01 282.871 368.69C283.024 368.363 283.101 367.99 283.101 367.57C283.101 367.137 283.024 366.757 282.871 366.43C282.724 366.097 282.511 365.843 282.231 365.67C281.958 365.49 281.641 365.4 281.281 365.4C280.748 365.4 280.321 365.593 280.001 365.98C279.688 366.36 279.531 366.877 279.531 367.53C279.531 367.963 279.604 368.343 279.751 368.67C279.898 368.997 280.104 369.25 280.371 369.43C280.644 369.61 280.958 369.7 281.311 369.7ZM287.643 370.1C286.956 370.1 286.4 369.967 285.973 369.7C285.553 369.433 285.3 369.06 285.213 368.58H285.973C286.026 368.927 286.2 369.2 286.493 369.4C286.793 369.593 287.186 369.69 287.673 369.69C288.133 369.69 288.5 369.597 288.773 369.41C289.053 369.223 289.193 368.977 289.193 368.67C289.193 368.423 289.073 368.23 288.833 368.09C288.593 367.943 288.193 367.823 287.633 367.73C287.073 367.637 286.626 367.533 286.293 367.42C285.966 367.3 285.73 367.157 285.583 366.99C285.436 366.817 285.363 366.603 285.363 366.35C285.363 365.937 285.56 365.61 285.953 365.37C286.353 365.123 286.91 365 287.623 365C288.316 365 288.876 365.133 289.303 365.4C289.736 365.66 289.986 366.027 290.053 366.5H289.293C289.233 366.16 289.06 365.893 288.773 365.7C288.486 365.507 288.123 365.41 287.683 365.41C287.263 365.41 286.923 365.487 286.663 365.64C286.41 365.787 286.283 365.987 286.283 366.24C286.283 366.393 286.326 366.517 286.413 366.61C286.5 366.703 286.656 366.787 286.883 366.86C287.116 366.933 287.46 367.01 287.913 367.09C288.686 367.223 289.246 367.41 289.593 367.65C289.94 367.883 290.113 368.203 290.113 368.61C290.113 369.077 289.893 369.443 289.453 369.71C289.02 369.97 288.416 370.1 287.643 370.1ZM291.641 370.1C291.475 370.1 291.338 370.05 291.231 369.95C291.131 369.843 291.081 369.71 291.081 369.55C291.081 369.397 291.135 369.27 291.241 369.17C291.348 369.063 291.481 369.01 291.641 369.01C291.808 369.01 291.945 369.063 292.051 369.17C292.158 369.27 292.211 369.397 292.211 369.55C292.211 369.71 292.158 369.843 292.051 369.95C291.945 370.05 291.808 370.1 291.641 370.1ZM293.382 365.1H294.282V365.93C294.428 365.637 294.652 365.41 294.952 365.25C295.258 365.083 295.608 365 296.002 365C296.475 365 296.865 365.1 297.172 365.3C297.485 365.5 297.705 365.79 297.832 366.17C297.985 365.777 298.215 365.483 298.522 365.29C298.835 365.097 299.208 365 299.642 365C300.282 365 300.772 365.16 301.112 365.48C301.452 365.793 301.622 366.243 301.622 366.83V370H300.702V366.74C300.702 366.333 300.585 366.01 300.352 365.77C300.125 365.53 299.818 365.41 299.432 365.41C298.978 365.41 298.618 365.6 298.352 365.98C298.085 366.353 297.952 366.87 297.952 367.53V370H297.052V367.17C297.052 366.603 296.935 366.17 296.702 365.87C296.475 365.563 296.148 365.41 295.722 365.41C295.288 365.41 294.942 365.573 294.682 365.9C294.428 366.22 294.302 366.657 294.302 367.21V370H293.382V365.1ZM304.773 370.1C304.126 370.1 303.633 369.97 303.293 369.71C302.959 369.45 302.793 369.08 302.793 368.6C302.793 368.087 302.996 367.697 303.403 367.43C303.809 367.157 304.403 367.02 305.183 367.02H306.643V366.66C306.643 366.253 306.519 365.943 306.273 365.73C306.026 365.517 305.669 365.41 305.203 365.41C304.763 365.41 304.409 365.513 304.143 365.72C303.876 365.92 303.719 366.207 303.673 366.58H302.953C303.019 366.073 303.253 365.683 303.653 365.41C304.053 365.137 304.586 365 305.253 365C305.999 365 306.569 365.153 306.963 365.46C307.356 365.76 307.553 366.197 307.553 366.77V368.39C307.553 368.963 307.603 369.5 307.703 370H306.843C306.769 369.7 306.723 369.413 306.703 369.14C306.303 369.78 305.659 370.1 304.773 370.1ZM305.003 369.71C305.309 369.71 305.586 369.64 305.833 369.5C306.086 369.353 306.283 369.16 306.423 368.92C306.569 368.68 306.643 368.413 306.643 368.12V367.43H305.433C304.846 367.43 304.409 367.527 304.123 367.72C303.843 367.907 303.703 368.197 303.703 368.59C303.703 368.957 303.813 369.237 304.033 369.43C304.253 369.617 304.576 369.71 305.003 369.71ZM312.926 370L310.826 367.35L309.946 368.12V370H309.026V363.17H309.946V367.46L312.696 365.1H313.406L311.416 366.83L313.926 370H312.926ZM316.938 369.69C317.391 369.69 317.771 369.58 318.078 369.36C318.391 369.14 318.591 368.84 318.678 368.46H319.428C319.301 368.973 319.011 369.377 318.558 369.67C318.104 369.957 317.551 370.1 316.898 370.1C316.351 370.1 315.871 369.997 315.458 369.79C315.051 369.583 314.734 369.29 314.508 368.91C314.288 368.523 314.178 368.077 314.178 367.57C314.178 367.05 314.288 366.597 314.508 366.21C314.728 365.823 315.041 365.527 315.448 365.32C315.861 365.107 316.338 365 316.878 365C317.691 365 318.324 365.22 318.778 365.66C319.238 366.1 319.478 366.72 319.498 367.52H315.098V367.57C315.098 368.23 315.258 368.75 315.578 369.13C315.898 369.503 316.351 369.69 316.938 369.69ZM316.898 365.41C316.398 365.41 315.994 365.56 315.688 365.86C315.381 366.153 315.194 366.57 315.128 367.11H318.628C318.554 366.563 318.368 366.143 318.068 365.85C317.774 365.557 317.384 365.41 316.898 365.41ZM320.677 365.1H321.597V365.96C321.757 365.667 322.003 365.433 322.337 365.26C322.677 365.087 323.057 365 323.477 365C324.123 365 324.633 365.17 325.007 365.51C325.38 365.843 325.567 366.297 325.567 366.87V370H324.647V366.77C324.647 366.337 324.527 366.003 324.287 365.77C324.047 365.53 323.707 365.41 323.267 365.41C322.76 365.41 322.353 365.577 322.047 365.91C321.747 366.237 321.597 366.67 321.597 367.21V370H320.677V365.1ZM328.718 370.1C328.071 370.1 327.578 369.97 327.238 369.71C326.905 369.45 326.738 369.08 326.738 368.6C326.738 368.087 326.941 367.697 327.348 367.43C327.755 367.157 328.348 367.02 329.128 367.02H330.588V366.66C330.588 366.253 330.465 365.943 330.218 365.73C329.971 365.517 329.615 365.41 329.148 365.41C328.708 365.41 328.355 365.513 328.088 365.72C327.821 365.92 327.665 366.207 327.618 366.58H326.898C326.965 366.073 327.198 365.683 327.598 365.41C327.998 365.137 328.531 365 329.198 365C329.945 365 330.515 365.153 330.908 365.46C331.301 365.76 331.498 366.197 331.498 366.77V368.39C331.498 368.963 331.548 369.5 331.648 370H330.788C330.715 369.7 330.668 369.413 330.648 369.14C330.248 369.78 329.605 370.1 328.718 370.1ZM328.948 369.71C329.255 369.71 329.531 369.64 329.778 369.5C330.031 369.353 330.228 369.16 330.368 368.92C330.515 368.68 330.588 368.413 330.588 368.12V367.43H329.378C328.791 367.43 328.355 367.527 328.068 367.72C327.788 367.907 327.648 368.197 327.648 368.59C327.648 368.957 327.758 369.237 327.978 369.43C328.198 369.617 328.521 369.71 328.948 369.71ZM336.871 370L334.771 367.35L333.891 368.12V370H332.971V363.17H333.891V367.46L336.641 365.1H337.351L335.361 366.83L337.871 370H336.871ZM340.953 370.1C340.386 370.1 339.889 369.997 339.463 369.79C339.036 369.577 338.706 369.277 338.473 368.89C338.239 368.503 338.123 368.057 338.123 367.55C338.123 367.043 338.239 366.597 338.473 366.21C338.706 365.823 339.036 365.527 339.463 365.32C339.889 365.107 340.386 365 340.953 365C341.519 365 342.016 365.107 342.443 365.32C342.876 365.527 343.209 365.823 343.443 366.21C343.676 366.597 343.793 367.043 343.793 367.55C343.793 368.057 343.676 368.503 343.443 368.89C343.209 369.277 342.876 369.577 342.443 369.79C342.016 369.997 341.519 370.1 340.953 370.1ZM340.953 369.69C341.546 369.69 342.013 369.5 342.353 369.12C342.693 368.74 342.863 368.217 342.863 367.55C342.863 366.883 342.693 366.36 342.353 365.98C342.013 365.6 341.546 365.41 340.953 365.41C340.359 365.41 339.893 365.6 339.553 365.98C339.219 366.36 339.053 366.883 339.053 367.55C339.053 368.217 339.219 368.74 339.553 369.12C339.893 369.5 340.359 369.69 340.953 369.69ZM344.983 365.1H345.903V365.96C346.063 365.667 346.31 365.433 346.643 365.26C346.983 365.087 347.363 365 347.783 365C348.43 365 348.94 365.17 349.313 365.51C349.687 365.843 349.873 366.297 349.873 366.87V370H348.953V366.77C348.953 366.337 348.833 366.003 348.593 365.77C348.353 365.53 348.013 365.41 347.573 365.41C347.067 365.41 346.66 365.577 346.353 365.91C346.053 366.237 345.903 366.67 345.903 367.21V370H344.983V365.1ZM356.425 365.22C356.205 365.12 355.951 365.07 355.665 365.07C355.351 365.07 355.085 365.113 354.865 365.2C355.211 365.333 355.478 365.523 355.665 365.77C355.851 366.017 355.945 366.313 355.945 366.66C355.945 367.14 355.751 367.543 355.365 367.87C354.985 368.19 354.408 368.363 353.635 368.39C353.341 368.403 353.095 368.447 352.895 368.52C352.695 368.587 352.595 368.67 352.595 368.77C352.595 368.857 352.658 368.923 352.785 368.97C352.918 369.01 353.085 369.03 353.285 369.03H353.715C354.541 369.03 355.178 369.147 355.625 369.38C356.078 369.607 356.305 369.933 356.305 370.36C356.305 370.68 356.188 370.957 355.955 371.19C355.728 371.43 355.401 371.613 354.975 371.74C354.555 371.873 354.065 371.94 353.505 371.94C352.971 371.94 352.505 371.883 352.105 371.77C351.711 371.663 351.405 371.51 351.185 371.31C350.971 371.117 350.865 370.89 350.865 370.63C350.865 370.35 350.998 370.117 351.265 369.93C351.531 369.737 351.945 369.603 352.505 369.53C352.198 369.49 351.971 369.413 351.825 369.3C351.678 369.18 351.605 369.04 351.605 368.88C351.605 368.72 351.695 368.577 351.875 368.45C352.055 368.323 352.291 368.243 352.585 368.21C352.138 368.09 351.805 367.897 351.585 367.63C351.371 367.363 351.265 367.037 351.265 366.65C351.265 366.15 351.478 365.75 351.905 365.45C352.331 365.15 352.898 365 353.605 365C353.911 365 354.178 365.023 354.405 365.07C354.585 364.903 354.791 364.777 355.025 364.69C355.258 364.603 355.505 364.56 355.765 364.56C356.031 364.56 356.251 364.59 356.425 364.65V365.22ZM353.605 367.97C354.065 367.97 354.418 367.863 354.665 367.65C354.911 367.43 355.035 367.11 355.035 366.69C355.035 366.277 354.911 365.96 354.665 365.74C354.418 365.52 354.065 365.41 353.605 365.41C353.151 365.41 352.801 365.52 352.555 365.74C352.308 365.96 352.185 366.277 352.185 366.69C352.185 367.11 352.305 367.43 352.545 367.65C352.791 367.863 353.145 367.97 353.605 367.97ZM353.805 369.59C353.105 369.59 352.558 369.68 352.165 369.86C351.771 370.033 351.575 370.273 351.575 370.58C351.575 370.873 351.751 371.11 352.105 371.29C352.458 371.477 352.928 371.57 353.515 371.57C354.128 371.57 354.618 371.463 354.985 371.25C355.358 371.037 355.545 370.763 355.545 370.43C355.545 370.15 355.385 369.94 355.065 369.8C354.751 369.66 354.331 369.59 353.805 369.59ZM357.94 370.1C357.773 370.1 357.637 370.05 357.53 369.95C357.43 369.843 357.38 369.71 357.38 369.55C357.38 369.397 357.433 369.27 357.54 369.17C357.647 369.063 357.78 369.01 357.94 369.01C358.107 369.01 358.243 369.063 358.35 369.17C358.457 369.27 358.51 369.397 358.51 369.55C358.51 369.71 358.457 369.843 358.35 369.95C358.243 370.05 358.107 370.1 357.94 370.1ZM362.27 370.1C361.704 370.1 361.207 369.997 360.78 369.79C360.36 369.583 360.037 369.29 359.81 368.91C359.584 368.523 359.47 368.07 359.47 367.55C359.47 367.03 359.584 366.58 359.81 366.2C360.037 365.813 360.36 365.517 360.78 365.31C361.2 365.103 361.694 365 362.26 365C362.954 365 363.524 365.147 363.97 365.44C364.424 365.727 364.704 366.127 364.81 366.64H364.06C363.967 366.26 363.76 365.96 363.44 365.74C363.127 365.52 362.747 365.41 362.3 365.41C361.714 365.41 361.247 365.603 360.9 365.99C360.56 366.37 360.39 366.89 360.39 367.55C360.39 368.21 360.56 368.733 360.9 369.12C361.247 369.5 361.714 369.69 362.3 369.69C362.74 369.69 363.12 369.58 363.44 369.36C363.76 369.14 363.967 368.84 364.06 368.46H364.81C364.704 368.973 364.424 369.377 363.97 369.67C363.517 369.957 362.95 370.1 362.27 370.1ZM368.629 370.1C368.062 370.1 367.565 369.997 367.139 369.79C366.712 369.577 366.382 369.277 366.149 368.89C365.915 368.503 365.799 368.057 365.799 367.55C365.799 367.043 365.915 366.597 366.149 366.21C366.382 365.823 366.712 365.527 367.139 365.32C367.565 365.107 368.062 365 368.629 365C369.195 365 369.692 365.107 370.119 365.32C370.552 365.527 370.885 365.823 371.119 366.21C371.352 366.597 371.469 367.043 371.469 367.55C371.469 368.057 371.352 368.503 371.119 368.89C370.885 369.277 370.552 369.577 370.119 369.79C369.692 369.997 369.195 370.1 368.629 370.1ZM368.629 369.69C369.222 369.69 369.689 369.5 370.029 369.12C370.369 368.74 370.539 368.217 370.539 367.55C370.539 366.883 370.369 366.36 370.029 365.98C369.689 365.6 369.222 365.41 368.629 365.41C368.035 365.41 367.569 365.6 367.229 365.98C366.895 366.36 366.729 366.883 366.729 367.55C366.729 368.217 366.895 368.74 367.229 369.12C367.569 369.5 368.035 369.69 368.629 369.69ZM372.659 365.1H373.559V365.93C373.706 365.637 373.929 365.41 374.229 365.25C374.536 365.083 374.886 365 375.279 365C375.752 365 376.142 365.1 376.449 365.3C376.762 365.5 376.982 365.79 377.109 366.17C377.262 365.777 377.492 365.483 377.799 365.29C378.112 365.097 378.486 365 378.919 365C379.559 365 380.049 365.16 380.389 365.48C380.729 365.793 380.899 366.243 380.899 366.83V370H379.979V366.74C379.979 366.333 379.862 366.01 379.629 365.77C379.402 365.53 379.096 365.41 378.709 365.41C378.256 365.41 377.896 365.6 377.629 365.98C377.362 366.353 377.229 366.87 377.229 367.53V370H376.329V367.17C376.329 366.603 376.212 366.17 375.979 365.87C375.752 365.563 375.426 365.41 374.999 365.41C374.566 365.41 374.219 365.573 373.959 365.9C373.706 366.22 373.579 366.657 373.579 367.21V370H372.659V365.1Z" fill="black" fill-opacity="0.5"/>
<path d="M239.332 371H381.499V371.5H239.332V371Z" fill="black" fill-opacity="0.5"/>
</g>
<defs>
<clipPath id="clip0_24_13">
<rect width="576" height="384" fill="white"/>
</clipPath>
</defs>
</svg>
