<svg width="47" height="30" viewBox="0 0 47 30" fill="none" xmlns="http://www.w3.org/2000/svg">
<path d="M30.8845 15.0021C29.6585 15.0021 28.5051 14.3994 27.8812 13.4352L23.2167 6.29695L18.5595 13.4352C17.9284 14.4061 16.7749 15.0088 15.549 15.0088C15.2225 15.0088 14.8961 14.9686 14.5842 14.8815L4.6458 12.2566V24.1759C4.6458 25.1603 5.37123 26.0174 6.40134 26.2518L22.0851 29.8744C22.825 30.0419 23.6012 30.0419 24.3339 29.8744L40.0321 26.2518C41.0622 26.0107 41.7877 25.1536 41.7877 24.1759V12.2566L31.8493 14.8748C31.5374 14.9619 31.2109 15.0021 30.8845 15.0021ZM46.3071 7.48888L42.5711 0.605138C42.3462 0.18997 41.8602 -0.0510949 41.3597 0.00917137L23.2167 2.14528L29.8689 12.3303C30.1446 12.7521 30.6959 12.953 31.2109 12.8191L45.5671 9.03572C46.2853 8.84152 46.6335 8.10494 46.3071 7.48888ZM3.86234 0.605138L0.126393 7.48888C-0.207303 8.10494 0.148156 8.84152 0.859074 9.02902L15.2153 12.8124C15.7303 12.9463 16.2817 12.7454 16.5573 12.3236L23.2167 2.14528L5.06655 0.00917137C4.56601 -0.0443986 4.08722 0.18997 3.86234 0.605138Z" fill="#50586C"/>
</svg>
