<svg width="576" height="384" viewBox="0 0 576 384" fill="none" xmlns="http://www.w3.org/2000/svg">
<rect width="576" height="384" fill="white"/>
<path d="M49.8409 63.9602V53.8182H97.625V63.9602H79.8125V112H67.6534V63.9602H49.8409ZM105.494 112V53.8182H117.795V77.8239H142.767V53.8182H155.04V112H142.767V87.9659H117.795V112H105.494ZM175.21 112H162.028L182.114 53.8182H197.966L218.023 112H204.841L190.267 67.1136H189.812L175.21 112ZM174.386 89.1307H205.523V98.733H174.386V89.1307ZM273.69 53.8182V112H263.065L237.753 75.3807H237.327V112H225.026V53.8182H235.821L260.935 90.4091H261.446V53.8182H273.69ZM283.854 112V53.8182H296.155V79.4716H296.922L317.859 53.8182H332.604L311.013 79.8693L332.859 112H318.143L302.206 88.0795L296.155 95.4659V112H283.854ZM354.116 53.8182H367.895L381.162 78.875H381.73L394.997 53.8182H408.776L387.554 91.4318V112H375.338V91.4318L354.116 53.8182ZM465.445 82.9091C465.445 89.2538 464.242 94.6515 461.837 99.1023C459.45 103.553 456.193 106.953 452.064 109.301C447.954 111.631 443.333 112.795 438.2 112.795C433.03 112.795 428.39 111.621 424.28 109.273C420.17 106.924 416.922 103.525 414.536 99.0739C412.149 94.6231 410.956 89.2348 410.956 82.9091C410.956 76.5644 412.149 71.1667 414.536 66.7159C416.922 62.2652 420.17 58.875 424.28 56.5455C428.39 54.197 433.03 53.0227 438.2 53.0227C443.333 53.0227 447.954 54.197 452.064 56.5455C456.193 58.875 459.45 62.2652 461.837 66.7159C464.242 71.1667 465.445 76.5644 465.445 82.9091ZM452.973 82.9091C452.973 78.7992 452.357 75.3333 451.126 72.5114C449.914 69.6894 448.2 67.5492 445.984 66.0909C443.768 64.6326 441.174 63.9034 438.2 63.9034C435.227 63.9034 432.632 64.6326 430.416 66.0909C428.2 67.5492 426.477 69.6894 425.246 72.5114C424.034 75.3333 423.428 78.7992 423.428 82.9091C423.428 87.0189 424.034 90.4848 425.246 93.3068C426.477 96.1288 428.2 98.2689 430.416 99.7273C432.632 101.186 435.227 101.915 438.2 101.915C441.174 101.915 443.768 101.186 445.984 99.7273C448.2 98.2689 449.914 96.1288 451.126 93.3068C452.357 90.4848 452.973 87.0189 452.973 82.9091ZM510.494 53.8182H522.795V91.6023C522.795 95.8447 521.782 99.5568 519.756 102.739C517.748 105.92 514.936 108.402 511.318 110.182C507.701 111.943 503.487 112.824 498.676 112.824C493.847 112.824 489.623 111.943 486.006 110.182C482.388 108.402 479.576 105.92 477.568 102.739C475.561 99.5568 474.557 95.8447 474.557 91.6023V53.8182H486.858V90.5511C486.858 92.767 487.341 94.7367 488.307 96.4602C489.292 98.1837 490.674 99.5379 492.455 100.523C494.235 101.508 496.309 102 498.676 102C501.063 102 503.136 101.508 504.898 100.523C506.678 99.5379 508.051 98.1837 509.017 96.4602C510.002 94.7367 510.494 92.767 510.494 90.5511V53.8182Z" fill="black"/>
<path d="M49.8409 172.96V162.818H97.625V172.96H79.8125V221H67.6534V172.96H49.8409ZM105.494 221V162.818H117.795V186.824H142.767V162.818H155.04V221H142.767V196.966H117.795V221H105.494ZM175.21 221H162.028L182.114 162.818H197.966L218.023 221H204.841L190.267 176.114H189.812L175.21 221ZM174.386 198.131H205.523V207.733H174.386V198.131ZM273.69 162.818V221H263.065L237.753 184.381H237.327V221H225.026V162.818H235.821L260.935 199.409H261.446V162.818H273.69ZM283.854 221V162.818H296.155V188.472H296.922L317.859 162.818H332.604L311.013 188.869L332.859 221H318.143L302.206 197.08L296.155 204.466V221H283.854ZM354.116 162.818H367.895L381.162 187.875H381.73L394.997 162.818H408.776L387.554 200.432V221H375.338V200.432L354.116 162.818ZM465.445 191.909C465.445 198.254 464.242 203.652 461.837 208.102C459.45 212.553 456.193 215.953 452.064 218.301C447.954 220.631 443.333 221.795 438.2 221.795C433.03 221.795 428.39 220.621 424.28 218.273C420.17 215.924 416.922 212.525 414.536 208.074C412.149 203.623 410.956 198.235 410.956 191.909C410.956 185.564 412.149 180.167 414.536 175.716C416.922 171.265 420.17 167.875 424.28 165.545C428.39 163.197 433.03 162.023 438.2 162.023C443.333 162.023 447.954 163.197 452.064 165.545C456.193 167.875 459.45 171.265 461.837 175.716C464.242 180.167 465.445 185.564 465.445 191.909ZM452.973 191.909C452.973 187.799 452.357 184.333 451.126 181.511C449.914 178.689 448.2 176.549 445.984 175.091C443.768 173.633 441.174 172.903 438.2 172.903C435.227 172.903 432.632 173.633 430.416 175.091C428.2 176.549 426.477 178.689 425.246 181.511C424.034 184.333 423.428 187.799 423.428 191.909C423.428 196.019 424.034 199.485 425.246 202.307C426.477 205.129 428.2 207.269 430.416 208.727C432.632 210.186 435.227 210.915 438.2 210.915C441.174 210.915 443.768 210.186 445.984 208.727C448.2 207.269 449.914 205.129 451.126 202.307C452.357 199.485 452.973 196.019 452.973 191.909ZM510.494 162.818H522.795V200.602C522.795 204.845 521.782 208.557 519.756 211.739C517.748 214.92 514.936 217.402 511.318 219.182C507.701 220.943 503.487 221.824 498.676 221.824C493.847 221.824 489.623 220.943 486.006 219.182C482.388 217.402 479.576 214.92 477.568 211.739C475.561 208.557 474.557 204.845 474.557 200.602V162.818H486.858V199.551C486.858 201.767 487.341 203.737 488.307 205.46C489.292 207.184 490.674 208.538 492.455 209.523C494.235 210.508 496.309 211 498.676 211C501.063 211 503.136 210.508 504.898 209.523C506.678 208.538 508.051 207.184 509.017 205.46C510.002 203.737 510.494 201.767 510.494 199.551V162.818Z" fill="black"/>
<path d="M49.8409 281.96V271.818H97.625V281.96H79.8125V330H67.6534V281.96H49.8409ZM105.494 330V271.818H117.795V295.824H142.767V271.818H155.04V330H142.767V305.966H117.795V330H105.494ZM175.21 330H162.028L182.114 271.818H197.966L218.023 330H204.841L190.267 285.114H189.812L175.21 330ZM174.386 307.131H205.523V316.733H174.386V307.131ZM273.69 271.818V330H263.065L237.753 293.381H237.327V330H225.026V271.818H235.821L260.935 308.409H261.446V271.818H273.69ZM283.854 330V271.818H296.155V297.472H296.922L317.859 271.818H332.604L311.013 297.869L332.859 330H318.143L302.206 306.08L296.155 313.466V330H283.854ZM354.116 271.818H367.895L381.162 296.875H381.73L394.997 271.818H408.776L387.554 309.432V330H375.338V309.432L354.116 271.818ZM465.445 300.909C465.445 307.254 464.242 312.652 461.837 317.102C459.45 321.553 456.193 324.953 452.064 327.301C447.954 329.631 443.333 330.795 438.2 330.795C433.03 330.795 428.39 329.621 424.28 327.273C420.17 324.924 416.922 321.525 414.536 317.074C412.149 312.623 410.956 307.235 410.956 300.909C410.956 294.564 412.149 289.167 414.536 284.716C416.922 280.265 420.17 276.875 424.28 274.545C428.39 272.197 433.03 271.023 438.2 271.023C443.333 271.023 447.954 272.197 452.064 274.545C456.193 276.875 459.45 280.265 461.837 284.716C464.242 289.167 465.445 294.564 465.445 300.909ZM452.973 300.909C452.973 296.799 452.357 293.333 451.126 290.511C449.914 287.689 448.2 285.549 445.984 284.091C443.768 282.633 441.174 281.903 438.2 281.903C435.227 281.903 432.632 282.633 430.416 284.091C428.2 285.549 426.477 287.689 425.246 290.511C424.034 293.333 423.428 296.799 423.428 300.909C423.428 305.019 424.034 308.485 425.246 311.307C426.477 314.129 428.2 316.269 430.416 317.727C432.632 319.186 435.227 319.915 438.2 319.915C441.174 319.915 443.768 319.186 445.984 317.727C448.2 316.269 449.914 314.129 451.126 311.307C452.357 308.485 452.973 305.019 452.973 300.909ZM510.494 271.818H522.795V309.602C522.795 313.845 521.782 317.557 519.756 320.739C517.748 323.92 514.936 326.402 511.318 328.182C507.701 329.943 503.487 330.824 498.676 330.824C493.847 330.824 489.623 329.943 486.006 328.182C482.388 326.402 479.576 323.92 477.568 320.739C475.561 317.557 474.557 313.845 474.557 309.602V271.818H486.858V308.551C486.858 310.767 487.341 312.737 488.307 314.46C489.292 316.184 490.674 317.538 492.455 318.523C494.235 319.508 496.309 320 498.676 320C501.063 320 503.136 319.508 504.898 318.523C506.678 317.538 508.051 316.184 509.017 314.46C510.002 312.737 510.494 310.767 510.494 308.551V271.818Z" fill="black"/>
</svg>
