<svg width="576" height="384" viewBox="0 0 576 384" fill="none" xmlns="http://www.w3.org/2000/svg">
<g clip-path="url(#clip0_24_81)">
<rect width="576" height="384" fill="white"/>
<path d="M-9.44886 2.95028V-9.72727H50.2812V2.95028H28.0156V63H12.8168V2.95028H-9.44886ZM60.1179 63V-9.72727H75.4943V20.2798H106.709V-9.72727H122.05V63H106.709V32.9574H75.4943V63H60.1179ZM147.263 63H130.786L155.892 -9.72727H175.707L200.778 63H184.301L166.084 6.89204H165.516L147.263 63ZM146.233 34.4134H185.153V46.4162H146.233V34.4134ZM270.363 -9.72727V63H257.082L225.441 17.2259H224.908V63H209.532V-9.72727H223.026L254.418 36.0114H255.058V-9.72727H270.363ZM283.067 63V-9.72727H298.444V22.3395H299.402L325.574 -9.72727H344.005L317.016 22.8366L344.324 63H325.929L306.007 33.0994L298.444 42.3324V63H283.067ZM370.896 -9.72727H388.119L404.702 21.5938H405.413L421.996 -9.72727H439.219L412.692 37.2898V63H397.423V37.2898L370.896 -9.72727ZM510.056 26.6364C510.056 34.5672 508.552 41.3144 505.546 46.8778C502.563 52.4413 498.491 56.6908 493.33 59.6264C488.193 62.5384 482.416 63.9943 476 63.9943C469.537 63.9943 463.737 62.5265 458.6 59.5909C453.462 56.6553 449.402 52.4058 446.419 46.8423C443.436 41.2789 441.945 34.5436 441.945 26.6364C441.945 18.7055 443.436 11.9583 446.419 6.39489C449.402 0.831438 453.462 -3.40625 458.6 -6.31818C463.737 -9.25379 469.537 -10.7216 476 -10.7216C482.416 -10.7216 488.193 -9.25379 493.33 -6.31818C498.491 -3.40625 502.563 0.831438 505.546 6.39489C508.552 11.9583 510.056 18.7055 510.056 26.6364ZM494.466 26.6364C494.466 21.4991 493.697 17.1667 492.158 13.6392C490.643 10.1117 488.5 7.43655 485.73 5.61364C482.961 3.79072 479.717 2.87926 476 2.87926C472.283 2.87926 469.04 3.79072 466.27 5.61364C463.5 7.43655 461.346 10.1117 459.807 13.6392C458.292 17.1667 457.534 21.4991 457.534 26.6364C457.534 31.7737 458.292 36.1061 459.807 39.6335C461.346 43.161 463.5 45.8362 466.27 47.6591C469.04 49.482 472.283 50.3935 476 50.3935C479.717 50.3935 482.961 49.482 485.73 47.6591C488.5 45.8362 490.643 43.161 492.158 39.6335C493.697 36.1061 494.466 31.7737 494.466 26.6364ZM566.368 -9.72727H581.744V37.5028C581.744 42.8059 580.478 47.446 577.945 51.4233C575.435 55.4006 571.92 58.5019 567.398 60.7273C562.876 62.929 557.608 64.0298 551.595 64.0298C545.558 64.0298 540.279 62.929 535.757 60.7273C531.235 58.5019 527.72 55.4006 525.21 51.4233C522.701 47.446 521.446 42.8059 521.446 37.5028V-9.72727H536.822V36.1889C536.822 38.9588 537.426 41.4209 538.634 43.5753C539.865 45.7296 541.593 47.4223 543.818 48.6534C546.044 49.8845 548.636 50.5 551.595 50.5C554.578 50.5 557.17 49.8845 559.372 48.6534C561.598 47.4223 563.314 45.7296 564.521 43.5753C565.752 41.4209 566.368 38.9588 566.368 36.1889V-9.72727Z" fill="black"/>
<path d="M-9.44886 112.95V100.273H50.2812V112.95H28.0156V173H12.8168V112.95H-9.44886ZM60.1179 173V100.273H75.4943V130.28H106.709V100.273H122.05V173H106.709V142.957H75.4943V173H60.1179ZM147.263 173H130.786L155.892 100.273H175.707L200.778 173H184.301L166.084 116.892H165.516L147.263 173ZM146.233 144.413H185.153V156.416H146.233V144.413ZM270.363 100.273V173H257.082L225.441 127.226H224.908V173H209.532V100.273H223.026L254.418 146.011H255.058V100.273H270.363ZM283.067 173V100.273H298.444V132.339H299.402L325.574 100.273H344.005L317.016 132.837L344.324 173H325.929L306.007 143.099L298.444 152.332V173H283.067ZM370.896 100.273H388.119L404.702 131.594H405.413L421.996 100.273H439.219L412.692 147.29V173H397.423V147.29L370.896 100.273ZM510.056 136.636C510.056 144.567 508.552 151.314 505.546 156.878C502.563 162.441 498.491 166.691 493.33 169.626C488.193 172.538 482.416 173.994 476 173.994C469.537 173.994 463.737 172.527 458.6 169.591C453.462 166.655 449.402 162.406 446.419 156.842C443.436 151.279 441.945 144.544 441.945 136.636C441.945 128.705 443.436 121.958 446.419 116.395C449.402 110.831 453.462 106.594 458.6 103.682C463.737 100.746 469.537 99.2784 476 99.2784C482.416 99.2784 488.193 100.746 493.33 103.682C498.491 106.594 502.563 110.831 505.546 116.395C508.552 121.958 510.056 128.705 510.056 136.636ZM494.466 136.636C494.466 131.499 493.697 127.167 492.158 123.639C490.643 120.112 488.5 117.437 485.73 115.614C482.961 113.791 479.717 112.879 476 112.879C472.283 112.879 469.04 113.791 466.27 115.614C463.5 117.437 461.346 120.112 459.807 123.639C458.292 127.167 457.534 131.499 457.534 136.636C457.534 141.774 458.292 146.106 459.807 149.634C461.346 153.161 463.5 155.836 466.27 157.659C469.04 159.482 472.283 160.393 476 160.393C479.717 160.393 482.961 159.482 485.73 157.659C488.5 155.836 490.643 153.161 492.158 149.634C493.697 146.106 494.466 141.774 494.466 136.636ZM566.368 100.273H581.744V147.503C581.744 152.806 580.478 157.446 577.945 161.423C575.435 165.401 571.92 168.502 567.398 170.727C562.876 172.929 557.608 174.03 551.595 174.03C545.558 174.03 540.279 172.929 535.757 170.727C531.235 168.502 527.72 165.401 525.21 161.423C522.701 157.446 521.446 152.806 521.446 147.503V100.273H536.822V146.189C536.822 148.959 537.426 151.421 538.634 153.575C539.865 155.73 541.593 157.422 543.818 158.653C546.044 159.884 548.636 160.5 551.595 160.5C554.578 160.5 557.17 159.884 559.372 158.653C561.598 157.422 563.314 155.73 564.521 153.575C565.752 151.421 566.368 148.959 566.368 146.189V100.273Z" fill="black"/>
<path d="M-9.44886 222.95V210.273H50.2812V222.95H28.0156V283H12.8168V222.95H-9.44886ZM60.1179 283V210.273H75.4943V240.28H106.709V210.273H122.05V283H106.709V252.957H75.4943V283H60.1179ZM147.263 283H130.786L155.892 210.273H175.707L200.778 283H184.301L166.084 226.892H165.516L147.263 283ZM146.233 254.413H185.153V266.416H146.233V254.413ZM270.363 210.273V283H257.082L225.441 237.226H224.908V283H209.532V210.273H223.026L254.418 256.011H255.058V210.273H270.363ZM283.067 283V210.273H298.444V242.339H299.402L325.574 210.273H344.005L317.016 242.837L344.324 283H325.929L306.007 253.099L298.444 262.332V283H283.067ZM370.896 210.273H388.119L404.702 241.594H405.413L421.996 210.273H439.219L412.692 257.29V283H397.423V257.29L370.896 210.273ZM510.056 246.636C510.056 254.567 508.552 261.314 505.546 266.878C502.563 272.441 498.491 276.691 493.33 279.626C488.193 282.538 482.416 283.994 476 283.994C469.537 283.994 463.737 282.527 458.6 279.591C453.462 276.655 449.402 272.406 446.419 266.842C443.436 261.279 441.945 254.544 441.945 246.636C441.945 238.705 443.436 231.958 446.419 226.395C449.402 220.831 453.462 216.594 458.6 213.682C463.737 210.746 469.537 209.278 476 209.278C482.416 209.278 488.193 210.746 493.33 213.682C498.491 216.594 502.563 220.831 505.546 226.395C508.552 231.958 510.056 238.705 510.056 246.636ZM494.466 246.636C494.466 241.499 493.697 237.167 492.158 233.639C490.643 230.112 488.5 227.437 485.73 225.614C482.961 223.791 479.717 222.879 476 222.879C472.283 222.879 469.04 223.791 466.27 225.614C463.5 227.437 461.346 230.112 459.807 233.639C458.292 237.167 457.534 241.499 457.534 246.636C457.534 251.774 458.292 256.106 459.807 259.634C461.346 263.161 463.5 265.836 466.27 267.659C469.04 269.482 472.283 270.393 476 270.393C479.717 270.393 482.961 269.482 485.73 267.659C488.5 265.836 490.643 263.161 492.158 259.634C493.697 256.106 494.466 251.774 494.466 246.636ZM566.368 210.273H581.744V257.503C581.744 262.806 580.478 267.446 577.945 271.423C575.435 275.401 571.92 278.502 567.398 280.727C562.876 282.929 557.608 284.03 551.595 284.03C545.558 284.03 540.279 282.929 535.757 280.727C531.235 278.502 527.72 275.401 525.21 271.423C522.701 267.446 521.446 262.806 521.446 257.503V210.273H536.822V256.189C536.822 258.959 537.426 261.421 538.634 263.575C539.865 265.73 541.593 267.422 543.818 268.653C546.044 269.884 548.636 270.5 551.595 270.5C554.578 270.5 557.17 269.884 559.372 268.653C561.598 267.422 563.314 265.73 564.521 263.575C565.752 261.421 566.368 258.959 566.368 256.189V210.273Z" fill="black"/>
<path d="M-9.44886 332.95V320.273H50.2812V332.95H28.0156V393H12.8168V332.95H-9.44886ZM60.1179 393V320.273H75.4943V350.28H106.709V320.273H122.05V393H106.709V362.957H75.4943V393H60.1179ZM147.263 393H130.786L155.892 320.273H175.707L200.778 393H184.301L166.084 336.892H165.516L147.263 393ZM146.233 364.413H185.153V376.416H146.233V364.413ZM270.363 320.273V393H257.082L225.441 347.226H224.908V393H209.532V320.273H223.026L254.418 366.011H255.058V320.273H270.363ZM283.067 393V320.273H298.444V352.339H299.402L325.574 320.273H344.005L317.016 352.837L344.324 393H325.929L306.007 363.099L298.444 372.332V393H283.067ZM370.896 320.273H388.119L404.702 351.594H405.413L421.996 320.273H439.219L412.692 367.29V393H397.423V367.29L370.896 320.273ZM510.056 356.636C510.056 364.567 508.552 371.314 505.546 376.878C502.563 382.441 498.491 386.691 493.33 389.626C488.193 392.538 482.416 393.994 476 393.994C469.537 393.994 463.737 392.527 458.6 389.591C453.462 386.655 449.402 382.406 446.419 376.842C443.436 371.279 441.945 364.544 441.945 356.636C441.945 348.705 443.436 341.958 446.419 336.395C449.402 330.831 453.462 326.594 458.6 323.682C463.737 320.746 469.537 319.278 476 319.278C482.416 319.278 488.193 320.746 493.33 323.682C498.491 326.594 502.563 330.831 505.546 336.395C508.552 341.958 510.056 348.705 510.056 356.636ZM494.466 356.636C494.466 351.499 493.697 347.167 492.158 343.639C490.643 340.112 488.5 337.437 485.73 335.614C482.961 333.791 479.717 332.879 476 332.879C472.283 332.879 469.04 333.791 466.27 335.614C463.5 337.437 461.346 340.112 459.807 343.639C458.292 347.167 457.534 351.499 457.534 356.636C457.534 361.774 458.292 366.106 459.807 369.634C461.346 373.161 463.5 375.836 466.27 377.659C469.04 379.482 472.283 380.393 476 380.393C479.717 380.393 482.961 379.482 485.73 377.659C488.5 375.836 490.643 373.161 492.158 369.634C493.697 366.106 494.466 361.774 494.466 356.636ZM566.368 320.273H581.744V367.503C581.744 372.806 580.478 377.446 577.945 381.423C575.435 385.401 571.92 388.502 567.398 390.727C562.876 392.929 557.608 394.03 551.595 394.03C545.558 394.03 540.279 392.929 535.757 390.727C531.235 388.502 527.72 385.401 525.21 381.423C522.701 377.446 521.446 372.806 521.446 367.503V320.273H536.822V366.189C536.822 368.959 537.426 371.421 538.634 373.575C539.865 375.73 541.593 377.422 543.818 378.653C546.044 379.884 548.636 380.5 551.595 380.5C554.578 380.5 557.17 379.884 559.372 378.653C561.598 377.422 563.314 375.73 564.521 373.575C565.752 371.421 566.368 368.959 566.368 366.189V320.273Z" fill="black"/>
</g>
<defs>
<clipPath id="clip0_24_81">
<rect width="576" height="384" fill="white"/>
</clipPath>
</defs>
</svg>
