<svg width="384" height="576" viewBox="0 0 384 576" fill="none" xmlns="http://www.w3.org/2000/svg">
<rect width="576" height="384" transform="matrix(0 -1 1 0 0 576)" fill="white"/>
<path d="M118.097 539.279H111.725V558H109.337V539.279H102.936V537.331H118.097V539.279ZM134.459 558H132.057V547.746H124.981V558H122.579V537.331H124.981V545.637H132.057V537.331H134.459V558ZM154.762 558H152.242L149.957 550.764H143.175L140.86 558H138.37L145.123 537.331H148.009L154.762 558ZM149.269 548.669L146.559 540.114L143.863 548.669H149.269ZM170.787 558H168.121L160.709 541.682V558H158.307V537.331H160.987L168.429 553.503V537.331H170.787V558ZM191.236 558H188.204L181.217 547.863L179.034 550.236V558H176.632V537.331H179.034V547.233L188.204 537.331H190.973L182.901 546.062L191.236 558ZM226.29 537.331L219.83 549.152V558H217.442V549.152L210.982 537.331H213.692L218.629 546.633L223.58 537.331H226.29ZM236.588 536.936C238.902 536.936 240.665 537.854 241.876 539.689C243.097 541.516 243.707 544.177 243.707 547.673C243.707 551.149 243.102 553.806 241.891 555.642C240.68 557.478 238.912 558.396 236.588 558.396C234.283 558.396 232.521 557.482 231.3 555.656C230.089 553.82 229.483 551.159 229.483 547.673C229.483 544.187 230.089 541.525 231.3 539.689C232.511 537.854 234.273 536.936 236.588 536.936ZM236.588 556.286C239.635 556.286 241.158 553.415 241.158 547.673C241.158 541.921 239.635 539.045 236.588 539.045C235.104 539.045 233.971 539.792 233.189 541.286C232.418 542.771 232.032 544.899 232.032 547.673C232.032 550.476 232.418 552.614 233.189 554.089C233.961 555.554 235.094 556.286 236.588 556.286ZM260.582 551.496C260.582 553.889 260.094 555.637 259.117 556.74C258.15 557.844 256.676 558.396 254.693 558.396C250.699 558.396 248.702 556.115 248.702 551.555V537.331H251.104V551.335C251.104 554.636 252.301 556.286 254.693 556.286C255.895 556.286 256.773 555.896 257.33 555.114C257.896 554.333 258.18 553.063 258.18 551.306V537.331H260.582V551.496ZM273.736 544.055L273.048 551.789H271.788L271.1 544.055V537.331H273.736V544.055ZM272.477 554.646C272.994 554.646 273.429 554.821 273.78 555.173C274.132 555.524 274.308 555.959 274.308 556.477C274.308 556.994 274.127 557.443 273.766 557.824C273.414 558.205 272.984 558.396 272.477 558.396C271.979 558.396 271.554 558.21 271.202 557.839C270.851 557.458 270.675 557.004 270.675 556.477C270.675 555.949 270.846 555.515 271.188 555.173C271.539 554.821 271.969 554.646 272.477 554.646Z" fill="black"/>
</svg>
